# xmcd
#
# Track frame offsets:
#	183
#	12675
#	21588
#	32075
#	41638
#	51500
#	63838
#	74163
#	84075
#	94675
#	110575
#	121088
#	132425
#	143125
#	156600
#	168088
#	181263
#	192125
#
# Disc length: 2711 seconds
#
# Revision: 0
# Processed by: cddbd v1.5.1PL0 Copyright (c) Steve Scherf et al.
# Submitted via: dBpowerAMP V4.0
#
DISCID=020a9512
DTITLE=Sam Cooke - You Send Me
DYEAR=1900
DGENRE=R&B
TTITLE0=You Send Me
TTITLE1=Only Sixteen
TTITLE2=Love You Most of All
TTITLE3=What a Wonderful World
TTITLE4=Steal Away
TTITLE5=Win Your Love for Me
TTITLE6=Little Things You Do
TTITLE7=Stealing Kisses
TTITLE8=Summertime
TTITLE9=Tammy
TTITLE10=No One Can Ever Take Your Place
TTITLE11=Let's Go Steady Again
TTITLE12=Desire Me
TTITLE13=I Thank God
TTITLE14=Ol' Man River
TTITLE15=You Were Made for Me
TTITLE16=All of My Life
TTITLE17=Darling I Need You
EXTD=
EXTT0=
EXTT1=
EXTT2=
EXTT3=
EXTT4=
EXTT5=
EXTT6=
EXTT7=
EXTT8=
EXTT9=
EXTT10=
EXTT11=
EXTT12=
EXTT13=
EXTT14=
EXTT15=
EXTT16=
EXTT17=
PLAYORDER=
